<?xml version="1.0" encoding="utf-8"?>
<!-- Generator: Adobe Illustrator 24.0.1, SVG Export Plug-In . SVG Version: 6.00 Build 0)  -->
<svg version="1.1" id="Layer_1" xmlns="http://www.w3.org/2000/svg" xmlns:xlink="http://www.w3.org/1999/xlink" x="0px" y="0px"
	 width="60px" height="60px" viewBox="0 0 60 60" style="enable-background:new 0 0 60 60;" xml:space="preserve">
<style type="text/css">
	.st0{fill:#FFFFFF;}
</style>
<g>
	<g>
		<g>
			<polygon class="st0" points="18.7,3.2 2.8,18.9 2.8,3.2 			"/>
			<polygon class="st0" points="34,3.2 2.8,44.2 2.8,23.3 23.2,3.2 			"/>
			<polygon class="st0" points="22.3,37.6 6.9,56.8 2.8,56.8 2.8,52.4 			"/>
			<polygon class="st0" points="49.9,3.2 26.4,32.5 26.3,32.6 5.7,48.2 39.9,3.2 			"/>
			<polygon class="st0" points="57.2,3.2 57.2,9.1 41.9,20.7 56,3.2 			"/>
			<polygon class="st0" points="57.2,11.1 57.2,22.1 17.4,51.3 37.9,25.8 37.9,25.8 			"/>
			<polygon class="st0" points="57.2,24.1 57.2,33.1 33.5,56.8 12.9,56.8 13.6,56 13.6,56 			"/>
			<polygon class="st0" points="57.2,37.6 57.2,56.8 38,56.8 			"/>
		</g>
	</g>
</g>
</svg>
