<?xml version="1.0" encoding="utf-8"?>
<!-- Generator: Adobe Illustrator 24.0.3, SVG Export Plug-In . SVG Version: 6.00 Build 0)  -->
<svg version="1.1" id="Layer_1" xmlns="http://www.w3.org/2000/svg" xmlns:xlink="http://www.w3.org/1999/xlink" x="0px" y="0px"
	 viewBox="0 0 1703.16 293.95" style="enable-background:new 0 0 1703.16 293.95;" xml:space="preserve">
<style type="text/css">
	.st0{fill:#FFFFFF;}
	.st1{fill:#002856;}
</style>
<g>
	<g>
		<g>
			<path class="st1" d="M256.11,293.23v-64.45h21.63c6.88,0,12.73,1.25,17.56,3.76c4.83,2.51,8.51,6.15,11.04,10.96
				c2.54,4.8,3.8,10.6,3.8,17.42c0,6.88-1.28,12.72-3.85,17.51c-2.56,4.8-6.26,8.46-11.09,11c-4.83,2.53-10.65,3.8-17.47,3.8H256.11
				z M263.53,286.89h13.76c8.33,0,14.59-2.17,18.78-6.52c4.19-4.34,6.29-10.83,6.29-19.46c0-17.2-8.36-25.8-25.08-25.8h-13.76
				V286.89z"/>
			<path class="st1" d="M345.5,293.23v-64.45h40.73v6.15h-33.4v22.45h31.59v6.24h-31.59v23.45h33.4v6.15H345.5z"/>
			<path class="st1" d="M441.84,293.95c-3.33,0-6.43-0.29-9.33-0.86c-2.89-0.57-5.58-1.48-8.05-2.71c-2.48-1.24-4.71-2.76-6.7-4.57
				l2.81-5.7c3.25,2.72,6.53,4.65,9.82,5.8c3.29,1.14,7.13,1.72,11.54,1.72c5.13,0,9.11-1.01,11.94-3.03
				c2.84-2.02,4.25-4.87,4.25-8.55c0-2.23-0.71-4.03-2.12-5.39c-1.42-1.36-3.35-2.44-5.8-3.26c-2.45-0.81-5.2-1.59-8.28-2.31
				c-3.08-0.66-6.01-1.43-8.78-2.3c-2.77-0.88-5.23-1.98-7.37-3.3c-2.14-1.33-3.82-3.02-5.03-5.07s-1.81-4.62-1.81-7.7
				c0-3.68,0.97-6.92,2.89-9.73c1.93-2.81,4.65-4.99,8.15-6.56c3.49-1.57,7.63-2.35,12.4-2.35c2.96,0,5.79,0.32,8.51,0.95
				c2.72,0.64,5.24,1.56,7.56,2.76c2.32,1.21,4.39,2.68,6.2,4.44l-2.89,5.7c-2.96-2.59-6.01-4.5-9.14-5.7
				c-3.14-1.21-6.55-1.81-10.23-1.81c-5.01,0-8.93,1.06-11.77,3.17c-2.84,2.11-4.25,5.07-4.25,8.87c0,2.35,0.63,4.25,1.9,5.7
				c1.27,1.45,3.05,2.61,5.34,3.49c2.3,0.88,4.92,1.67,7.88,2.4c3.14,0.72,6.15,1.51,9.05,2.35c2.89,0.85,5.48,1.89,7.75,3.13
				c2.26,1.24,4.06,2.83,5.38,4.8s1.99,4.45,1.99,7.47c0,3.68-0.96,6.88-2.89,9.59c-1.93,2.72-4.67,4.83-8.23,6.34
				C450.95,293.19,446.73,293.95,441.84,293.95z"/>
			<path class="st1" d="M500.05,293.23v-64.45h7.43v64.45H500.05z"/>
			<path class="st1" d="M573.97,293.95c-6.45,0-11.99-1.31-16.61-3.94c-4.62-2.62-8.15-6.4-10.59-11.31
				c-2.45-4.92-3.66-10.84-3.66-17.78c0-6.88,1.22-12.78,3.66-17.7c2.44-4.92,5.94-8.67,10.5-11.27c4.55-2.6,9.94-3.89,16.15-3.89
				c4.46,0,8.59,0.68,12.35,2.04c3.77,1.36,7.05,3.39,9.82,6.11l-2.89,5.7c-3.14-2.65-6.22-4.57-9.24-5.75s-6.36-1.77-10.04-1.77
				c-7.3,0-12.9,2.28-16.8,6.83c-3.89,4.56-5.83,11.12-5.83,19.69c0,8.75,1.99,15.4,5.98,19.96c3.98,4.56,9.77,6.83,17.38,6.83
				c3.14,0,6.2-0.28,9.19-0.86c2.98-0.57,5.69-1.34,8.1-2.31l-1.81,3.8v-22.81h-16.02v-5.88h22.82v29.87
				c-1.69,0.91-3.76,1.69-6.2,2.35c-2.44,0.66-5.07,1.18-7.87,1.54C579.54,293.77,576.74,293.95,573.97,293.95z"/>
			<path class="st1" d="M633.77,293.23v-64.45h5.7l41.09,54.77l-2.18,0.54v-55.31h7.06v64.45h-5.79l-41-54.67l2.08-0.64v55.31
				H633.77z"/>
			<path class="st1" d="M768.36,293.23v-64.45h25.62c6.94,0,12.26,1.54,15.97,4.62c3.71,3.08,5.57,7.51,5.57,13.3
				c0,5.55-1.88,9.91-5.66,13.08c-3.77,3.17-9.07,4.75-15.88,4.75l6.7-1.27c2.35,0,4.37,0.65,6.06,1.94c1.69,1.3,3.04,3.36,4.07,6.2
				l8.15,21.82h-7.87l-7.97-21.45c-1.03-2.72-2.43-4.51-4.21-5.39c-1.78-0.87-4.15-1.31-7.1-1.31H775.7v28.15H768.36z M775.7,258.92
				h17.65c5.01,0,8.74-1.02,11.18-3.08c2.44-2.05,3.67-5.07,3.67-9.05c0-3.98-1.22-6.96-3.62-8.92c-2.41-1.96-6.15-2.94-11.23-2.94
				H775.7V258.92z"/>
			<path class="st1" d="M852.61,293.23v-64.45h40.73v6.15h-33.4v22.45h31.59v6.24h-31.59v23.45h33.4v6.15H852.61z"/>
			<path class="st1" d="M927.21,293.23v-64.45h21.63c6.88,0,12.73,1.25,17.56,3.76c4.83,2.51,8.51,6.15,11.05,10.96
				c2.53,4.8,3.8,10.6,3.8,17.42c0,6.88-1.28,12.72-3.85,17.51c-2.56,4.8-6.26,8.46-11.09,11c-4.83,2.53-10.65,3.8-17.47,3.8H927.21
				z M934.63,286.89h13.76c8.33,0,14.59-2.17,18.78-6.52c4.19-4.34,6.29-10.83,6.29-19.46c0-17.2-8.35-25.8-25.07-25.8h-13.76
				V286.89z"/>
			<path class="st1" d="M1016.6,293.23v-64.45h40.73v6.15h-33.4v22.45h31.59v6.24h-31.59v23.45h33.4v6.15H1016.6z"/>
			<path class="st1" d="M1091.2,293.23v-64.45h39.83v6.25h-32.5v22.36h30.68v6.24h-30.68v29.6H1091.2z"/>
			<path class="st1" d="M1163.73,293.23v-64.45h7.42v64.45H1163.73z"/>
			<path class="st1" d="M1209.29,293.23v-64.45h5.7l41.09,54.77l-2.18,0.54v-55.31h7.06v64.45h-5.79l-41-54.67l2.08-0.64v55.31
				H1209.29z"/>
			<path class="st1" d="M1299.13,293.23v-64.45h40.73v6.15h-33.4v22.45h31.59v6.24h-31.59v23.45h33.4v6.15H1299.13z"/>
			<path class="st1" d="M1373.74,293.23v-64.45h21.63c6.88,0,12.73,1.25,17.56,3.76c4.83,2.51,8.51,6.15,11.04,10.96
				c2.54,4.8,3.8,10.6,3.8,17.42c0,6.88-1.28,12.72-3.85,17.51c-2.56,4.8-6.26,8.46-11.09,11c-4.83,2.53-10.65,3.8-17.47,3.8
				H1373.74z M1381.16,286.89h13.76c8.33,0,14.59-2.17,18.78-6.52c4.19-4.34,6.29-10.83,6.29-19.46c0-17.2-8.36-25.8-25.08-25.8
				h-13.76V286.89z"/>
		</g>
	</g>
	<g>
		<path class="st1" d="M107.36,5.75H62.39v130.13H45.35V5.75H0V1.92h107.36V5.75z"/>
		<path class="st1" d="M232.95,132.05v3.83H138.6V1.92h92.44v3.83h-75.4v60.28h60.09v3.83h-60.09v62.2H232.95z"/>
		<path class="st1" d="M252.11,68.9c0-38.66,29.86-68.9,70.62-68.9c29.86,0,51.86,15.31,51.86,34.64h-4.21
			c0-16.65-18.18-29.86-43.63-29.86c-34.64,0-56.84,25.07-56.84,63.92c0,39.24,22.58,64.31,56.27,64.31
			c20.67,0,37.13-9.57,45.55-24.31h4.4c-8.04,16.65-28.52,29.09-53.2,29.09C282.92,137.8,252.11,108.52,252.11,68.9z"/>
		<path class="st1" d="M677.85,68.9c0-39.23,29.86-68.9,69.66-68.9c40,0,69.85,29.67,69.85,68.9s-29.86,68.9-69.85,68.9
			C707.71,137.8,677.85,108.13,677.85,68.9z M799.57,68.9c0-39.23-20.67-65.07-52.06-65.07c-31.19,0-51.86,25.84-51.86,65.07
			s20.67,65.07,51.86,65.07C778.9,133.97,799.57,108.13,799.57,68.9z"/>
		<path class="st1" d="M1043.77,64.31l-19.71,17.61v53.97h-17.03V1.92h17.03v74.06l82.29-74.06h6.7l-57.42,51.67l61.63,82.29h-19.91
			L1043.77,64.31z"/>
		<path class="st1" d="M1134.93,101.05h4.21c0,18.56,18.76,32.53,42.48,32.53c21.82,0,37.32-10.72,37.32-25.46
			c0-16.07-17.8-23.54-38.28-31.57c-19.33-7.85-42.68-17.23-42.68-40.39c0-21.24,19.71-36.17,46.31-36.17
			c24.3,0,43.06,14.93,43.06,34.64h-4.21c0-17.41-15.88-30.43-36.93-30.43c-20.1,0-35.03,11.1-35.03,25.65
			c0,16.46,19.14,24.31,38.09,31.77c22.2,8.42,43.25,16.65,43.25,39.42c0,22.39-20.29,36.74-48.61,36.74
			C1156.55,137.8,1134.93,121.91,1134.93,101.05z"/>
		<path class="st1" d="M1382.99,1.92v133.96h-17.03V69.85h-79.04v66.03h-17.03V1.92h17.03v64.11h79.04V1.92H1382.99z"/>
		<path class="st1" d="M1420.74,68.9c0-39.23,29.86-68.9,69.66-68.9c40,0,69.85,29.67,69.85,68.9s-29.86,68.9-69.85,68.9
			C1450.59,137.8,1420.74,108.13,1420.74,68.9z M1542.45,68.9c0-39.23-20.67-65.07-52.05-65.07c-31.19,0-51.87,25.84-51.87,65.07
			s20.67,65.07,51.87,65.07C1521.79,133.97,1542.45,108.13,1542.45,68.9z"/>
		<g>
			<polygon class="st1" points="555.26,69.71 534.02,118.27 483.3,1.92 465.5,1.92 524.06,135.88 531.53,135.88 531.99,134.82 
				531.99,134.85 538.18,120.73 557.93,75.78 			"/>
			<polygon class="st1" points="661.47,1.92 610.76,118.47 575.04,36.69 590.74,0.89 585.38,0.89 572.42,30.68 559.85,1.92 
				542.05,1.92 563.49,50.91 563.46,50.98 566.14,57.09 566.17,57.03 600.62,135.88 608.08,135.88 666.83,1.92 			"/>
		</g>
		<path class="st1" d="M953.96,121.34l-17.23-29.28c-3.83-6.7-11.29-11.49-20.47-14.17C939.8,75.03,956.45,59.9,956.45,40
			c0-21.82-20.86-38.08-48.61-38.08h-52.63v133.96h17.03V86.7v-8.23v-3.83V68.9V5.75h32.35c20.47,0,34.07,13.59,34.07,34.45
			s-13.59,34.45-34.07,34.45h-15.93v3.83h16.12c4.98,2.3,8.99,6.31,11.67,10.72l20.29,35.6c2.3,4.02,5.55,8.04,9.95,11.1h19.52
			C962.19,133.01,957.22,127.27,953.96,121.34z"/>
		<path class="st1" d="M1654.55,1.92h-56.46v133.96h17.03V86.7v-1.34v-3.83V68.9V5.75h35.79c20.86,0,34.45,15.12,34.45,37.89
			c0,22.78-13.59,37.89-34.45,37.89h-19.37v3.83h23.01c27.75,0,48.61-17.8,48.61-41.72C1703.16,19.71,1682.3,1.92,1654.55,1.92z"/>
	</g>
</g>
</svg>
