<?xml version="1.0" encoding="utf-8"?>
<!-- Generator: Adobe Illustrator 24.0.3, SVG Export Plug-In . SVG Version: 6.00 Build 0)  -->
<svg version="1.1" id="Layer_1" xmlns="http://www.w3.org/2000/svg" xmlns:xlink="http://www.w3.org/1999/xlink" x="0px" y="0px"
	 viewBox="0 0 1703.16 1258.02" style="enable-background:new 0 0 1703.16 1258.02;" xml:space="preserve">
<style type="text/css">
	.st0{fill:#FFFFFF;}
	.st1{fill:#002856;}
</style>
<g>
	<g>
		<g>
			<path class="st0" d="M256.11,1257.29v-64.45h21.63c6.88,0,12.73,1.25,17.56,3.76c4.83,2.51,8.51,6.15,11.04,10.96
				c2.54,4.8,3.8,10.6,3.8,17.42c0,6.88-1.28,12.72-3.85,17.51s-6.26,8.46-11.09,11c-4.83,2.53-10.65,3.8-17.47,3.8H256.11z
				 M263.53,1250.96h13.76c8.33,0,14.59-2.17,18.78-6.52c4.19-4.34,6.29-10.83,6.29-19.46c0-17.2-8.36-25.8-25.08-25.8h-13.76
				V1250.96z"/>
			<path class="st0" d="M345.5,1257.29v-64.45h40.73v6.15h-33.4v22.45h31.59v6.24h-31.59v23.45h33.4v6.15H345.5z"/>
			<path class="st0" d="M441.84,1258.02c-3.33,0-6.43-0.29-9.33-0.86s-5.58-1.48-8.05-2.71s-4.71-2.76-6.7-4.57l2.81-5.7
				c3.25,2.72,6.53,4.65,9.82,5.8c3.29,1.14,7.13,1.72,11.54,1.72c5.13,0,9.11-1.01,11.94-3.03c2.84-2.02,4.25-4.87,4.25-8.55
				c0-2.23-0.71-4.03-2.12-5.39c-1.42-1.36-3.35-2.44-5.8-3.26c-2.45-0.81-5.2-1.59-8.28-2.31c-3.08-0.66-6.01-1.43-8.78-2.3
				c-2.77-0.88-5.23-1.98-7.37-3.3c-2.14-1.33-3.82-3.02-5.03-5.07c-1.2-2.05-1.81-4.62-1.81-7.7c0-3.68,0.97-6.92,2.89-9.73
				c1.93-2.81,4.65-4.99,8.15-6.56c3.49-1.57,7.63-2.35,12.4-2.35c2.96,0,5.79,0.32,8.51,0.95c2.72,0.64,5.24,1.56,7.56,2.76
				c2.32,1.21,4.39,2.68,6.2,4.44l-2.89,5.7c-2.96-2.59-6.01-4.5-9.14-5.7c-3.14-1.21-6.55-1.81-10.23-1.81
				c-5.01,0-8.93,1.06-11.77,3.17c-2.84,2.11-4.25,5.07-4.25,8.87c0,2.35,0.63,4.25,1.9,5.7c1.27,1.45,3.05,2.61,5.34,3.49
				c2.3,0.88,4.92,1.67,7.88,2.4c3.14,0.72,6.15,1.51,9.05,2.35c2.89,0.85,5.48,1.89,7.75,3.13c2.26,1.24,4.06,2.83,5.38,4.8
				c1.33,1.96,1.99,4.45,1.99,7.47c0,3.68-0.96,6.88-2.89,9.59c-1.93,2.72-4.67,4.83-8.23,6.34
				C450.95,1257.26,446.73,1258.02,441.84,1258.02z"/>
			<path class="st0" d="M500.05,1257.29v-64.45h7.43v64.45H500.05z"/>
			<path class="st0" d="M573.97,1258.02c-6.45,0-11.99-1.31-16.61-3.94c-4.62-2.62-8.15-6.4-10.59-11.31
				c-2.45-4.92-3.66-10.84-3.66-17.78c0-6.88,1.22-12.78,3.66-17.7c2.44-4.92,5.94-8.67,10.5-11.27c4.55-2.6,9.94-3.89,16.15-3.89
				c4.46,0,8.59,0.68,12.35,2.04c3.77,1.36,7.05,3.39,9.82,6.11l-2.89,5.7c-3.14-2.65-6.22-4.57-9.24-5.75s-6.36-1.77-10.04-1.77
				c-7.3,0-12.9,2.28-16.8,6.83c-3.89,4.56-5.83,11.12-5.83,19.69c0,8.75,1.99,15.4,5.98,19.96c3.98,4.56,9.77,6.83,17.38,6.83
				c3.14,0,6.2-0.28,9.19-0.86s5.69-1.34,8.1-2.31l-1.81,3.8v-22.81h-16.02v-5.88h22.82v29.87c-1.69,0.91-3.76,1.69-6.2,2.35
				c-2.44,0.66-5.07,1.18-7.87,1.54C579.54,1257.84,576.74,1258.02,573.97,1258.02z"/>
			<path class="st0" d="M633.77,1257.29v-64.45h5.7l41.09,54.77l-2.18,0.54v-55.31h7.06v64.45h-5.79l-41-54.67l2.08-0.64v55.31
				H633.77z"/>
			<path class="st0" d="M768.36,1257.29v-64.45h25.62c6.94,0,12.26,1.54,15.97,4.62c3.71,3.08,5.57,7.51,5.57,13.3
				c0,5.55-1.88,9.91-5.66,13.08c-3.77,3.17-9.07,4.75-15.88,4.75l6.7-1.27c2.35,0,4.37,0.65,6.06,1.94s3.04,3.36,4.07,6.2
				l8.15,21.82h-7.87l-7.97-21.45c-1.03-2.72-2.43-4.51-4.21-5.39c-1.78-0.87-4.15-1.31-7.1-1.31H775.7v28.15H768.36z
				 M775.7,1222.99h17.65c5.01,0,8.74-1.02,11.18-3.08c2.44-2.05,3.67-5.07,3.67-9.05s-1.22-6.96-3.62-8.92
				c-2.41-1.96-6.15-2.94-11.23-2.94H775.7V1222.99z"/>
			<path class="st0" d="M852.61,1257.29v-64.45h40.73v6.15h-33.4v22.45h31.59v6.24h-31.59v23.45h33.4v6.15H852.61z"/>
			<path class="st0" d="M927.21,1257.29v-64.45h21.63c6.88,0,12.73,1.25,17.56,3.76c4.83,2.51,8.51,6.15,11.05,10.96
				c2.53,4.8,3.8,10.6,3.8,17.42c0,6.88-1.28,12.72-3.85,17.51c-2.56,4.8-6.26,8.46-11.09,11c-4.83,2.53-10.65,3.8-17.47,3.8H927.21
				z M934.63,1250.96h13.76c8.33,0,14.59-2.17,18.78-6.52c4.19-4.34,6.29-10.83,6.29-19.46c0-17.2-8.35-25.8-25.07-25.8h-13.76
				V1250.96z"/>
			<path class="st0" d="M1016.6,1257.29v-64.45h40.73v6.15h-33.4v22.45h31.59v6.24h-31.59v23.45h33.4v6.15H1016.6z"/>
			<path class="st0" d="M1091.2,1257.29v-64.45h39.83v6.25h-32.5v22.36h30.68v6.24h-30.68v29.6H1091.2z"/>
			<path class="st0" d="M1163.73,1257.29v-64.45h7.42v64.45H1163.73z"/>
			<path class="st0" d="M1209.29,1257.29v-64.45h5.7l41.09,54.77l-2.18,0.54v-55.31h7.06v64.45h-5.79l-41-54.67l2.08-0.64v55.31
				H1209.29z"/>
			<path class="st0" d="M1299.13,1257.29v-64.45h40.73v6.15h-33.4v22.45h31.59v6.24h-31.59v23.45h33.4v6.15H1299.13z"/>
			<path class="st0" d="M1373.74,1257.29v-64.45h21.63c6.88,0,12.73,1.25,17.56,3.76c4.83,2.51,8.51,6.15,11.04,10.96
				c2.54,4.8,3.8,10.6,3.8,17.42c0,6.88-1.28,12.72-3.85,17.51c-2.56,4.8-6.26,8.46-11.09,11c-4.83,2.53-10.65,3.8-17.47,3.8
				H1373.74z M1381.16,1250.96h13.76c8.33,0,14.59-2.17,18.78-6.52c4.19-4.34,6.29-10.83,6.29-19.46c0-17.2-8.36-25.8-25.08-25.8
				h-13.76V1250.96z"/>
		</g>
	</g>
	<g>
		<g>
			<polygon class="st0" points="685.14,0 458.74,226.23 458.74,0 			"/>
			<polygon class="st0" points="902.21,0 458.74,592.2 458.74,290.27 749.18,0 			"/>
			<polygon class="st0" points="735.78,497.44 516.33,774.37 458.74,774.37 458.74,710.67 			"/>
			<polygon class="st0" points="1129.92,0 794.05,423.9 793.93,424.07 500.21,650.19 987.02,0 			"/>
			<polygon class="st0" points="1233.11,0 1233.11,85.88 1016.04,252.99 1216.59,0 			"/>
			<polygon class="st0" points="1233.11,114.45 1233.11,273.36 666.36,694.26 957.94,326.31 957.99,326.25 			"/>
			<polygon class="st0" points="1233.11,301.48 1233.11,432.44 895.71,774.37 602.89,774.37 612.16,762.71 612.22,762.66 			"/>
			<polygon class="st0" points="959.29,774.37 1233.11,496.88 1233.11,774.37 			"/>
		</g>
	</g>
	<g>
		<path class="st0" d="M107.36,969.81H62.39v130.13H45.35V969.81H0v-3.83h107.36V969.81z"/>
		<path class="st0" d="M232.95,1096.12v3.83H138.6V965.99h92.44v3.83h-75.4v60.28h60.09v3.83h-60.09v62.2H232.95z"/>
		<path class="st0" d="M252.11,1032.97c0-38.66,29.86-68.9,70.62-68.9c29.86,0,51.86,15.31,51.86,34.64h-4.21
			c0-16.65-18.18-29.86-43.63-29.86c-34.64,0-56.84,25.07-56.84,63.92c0,39.24,22.58,64.31,56.27,64.31
			c20.67,0,37.13-9.57,45.55-24.31h4.4c-8.04,16.65-28.52,29.09-53.2,29.09C282.92,1101.87,252.11,1072.58,252.11,1032.97z"/>
		<path class="st0" d="M677.85,1032.97c0-39.23,29.86-68.9,69.66-68.9c40,0,69.85,29.67,69.85,68.9c0,39.23-29.86,68.9-69.85,68.9
			C707.71,1101.87,677.85,1072.2,677.85,1032.97z M799.57,1032.97c0-39.23-20.67-65.07-52.06-65.07
			c-31.19,0-51.86,25.84-51.86,65.07c0,39.23,20.67,65.07,51.86,65.07C778.9,1098.04,799.57,1072.2,799.57,1032.97z"/>
		<path class="st0" d="M1043.77,1028.38l-19.71,17.61v53.97h-17.03V965.99h17.03v74.06l82.29-74.06h6.7l-57.42,51.67l61.63,82.29
			h-19.91L1043.77,1028.38z"/>
		<path class="st0" d="M1134.92,1065.12h4.21c0,18.56,18.76,32.53,42.48,32.53c21.82,0,37.32-10.72,37.32-25.46
			c0-16.07-17.8-23.54-38.28-31.57c-19.33-7.85-42.68-17.23-42.68-40.39c0-21.24,19.71-36.17,46.31-36.17
			c24.3,0,43.06,14.93,43.06,34.64h-4.21c0-17.41-15.88-30.43-36.93-30.43c-20.1,0-35.03,11.1-35.03,25.65
			c0,16.46,19.14,24.31,38.09,31.77c22.2,8.42,43.25,16.65,43.25,39.42c0,22.39-20.29,36.74-48.61,36.74
			C1156.55,1101.87,1134.92,1085.98,1134.92,1065.12z"/>
		<path class="st0" d="M1382.99,965.99v133.96h-17.03v-66.03h-79.04v66.03h-17.03V965.99h17.03v64.11h79.04v-64.11H1382.99z"/>
		<path class="st0" d="M1420.74,1032.97c0-39.23,29.86-68.9,69.66-68.9c40,0,69.85,29.67,69.85,68.9c0,39.23-29.86,68.9-69.85,68.9
			C1450.59,1101.87,1420.74,1072.2,1420.74,1032.97z M1542.45,1032.97c0-39.23-20.67-65.07-52.05-65.07
			c-31.19,0-51.87,25.84-51.87,65.07c0,39.23,20.67,65.07,51.87,65.07C1521.79,1098.04,1542.45,1072.2,1542.45,1032.97z"/>
		<g>
			<polygon class="st0" points="555.26,1033.78 534.02,1082.34 483.3,965.99 465.5,965.99 524.06,1099.95 531.53,1099.95 
				531.99,1098.89 531.99,1098.92 538.18,1084.8 557.93,1039.85 			"/>
			<polygon class="st0" points="661.47,965.99 610.76,1082.54 575.04,1000.76 590.74,964.96 585.38,964.96 572.42,994.75 
				559.85,965.99 542.05,965.99 563.49,1014.98 563.46,1015.05 566.14,1021.16 566.17,1021.1 600.62,1099.95 608.08,1099.95 
				666.83,965.99 			"/>
		</g>
		<path class="st0" d="M953.96,1085.41l-17.23-29.28c-3.83-6.7-11.29-11.49-20.47-14.17c23.54-2.87,40.19-17.99,40.19-37.89
			c0-21.82-20.86-38.08-48.61-38.08h-52.63v133.96h17.03v-49.18v-8.23v-3.83v-5.74v-63.15h32.35c20.47,0,34.07,13.59,34.07,34.45
			c0,20.86-13.59,34.45-34.07,34.45h-15.93v3.83h16.12c4.98,2.3,8.99,6.31,11.67,10.72l20.29,35.6c2.3,4.02,5.55,8.04,9.95,11.1
			h19.52C962.19,1097.08,957.22,1091.34,953.96,1085.41z"/>
		<path class="st0" d="M1654.55,965.99h-56.46v133.96h17.03v-49.18v-1.34v-3.83v-12.63v-63.15h35.79
			c20.86,0,34.45,15.12,34.45,37.89c0,22.78-13.59,37.89-34.45,37.89h-19.37v3.83h23.01c27.75,0,48.61-17.8,48.61-41.72
			C1703.16,983.78,1682.3,965.99,1654.55,965.99z"/>
	</g>
</g>
</svg>
