<?xml version="1.0" encoding="utf-8"?>
<!-- Generator: Adobe Illustrator 24.0.3, SVG Export Plug-In . SVG Version: 6.00 Build 0)  -->
<svg version="1.1" id="Layer_1" xmlns="http://www.w3.org/2000/svg" xmlns:xlink="http://www.w3.org/1999/xlink" x="0px" y="0px"
	 viewBox="0 0 774.37 774.37" style="enable-background:new 0 0 774.37 774.37;" xml:space="preserve">
<style type="text/css">
	.st0{fill:#FFFFFF;}
	.st1{fill:#002856;}
</style>
<g>
	<g>
		<polygon class="st0" points="226.4,0 0,226.23 0,0 		"/>
		<polygon class="st0" points="443.47,0 0,592.2 0,290.27 290.44,0 		"/>
		<polygon class="st0" points="277.04,497.44 57.59,774.37 0,774.37 0,710.67 		"/>
		<polygon class="st0" points="671.18,0 335.31,423.9 335.19,424.07 41.47,650.19 528.28,0 		"/>
		<polygon class="st0" points="774.37,0 774.37,85.88 557.3,252.99 757.85,0 		"/>
		<polygon class="st0" points="774.37,114.45 774.37,273.36 207.62,694.26 499.2,326.31 499.25,326.25 		"/>
		<polygon class="st0" points="774.37,301.48 774.37,432.44 436.97,774.37 144.15,774.37 153.43,762.71 153.48,762.66 		"/>
		<polygon class="st0" points="500.56,774.37 774.37,496.88 774.37,774.37 		"/>
	</g>
</g>
</svg>
