<?xml version="1.0" encoding="utf-8"?>
<!-- Generator: Adobe Illustrator 24.0.1, SVG Export Plug-In . SVG Version: 6.00 Build 0)  -->
<svg version="1.1" id="Layer_1" xmlns="http://www.w3.org/2000/svg" xmlns:xlink="http://www.w3.org/1999/xlink" x="0px" y="0px"
	 width="212px" height="32px" viewBox="0 0 212 32" style="enable-background:new 0 0 212 32;" xml:space="preserve">
<style type="text/css">
	.st0{fill:#13213D;}
	.st1{fill:#FFFFFF;}
	.st2{fill:#FFFFFF;stroke:#000000;stroke-width:0.5;stroke-miterlimit:10;}
	.st3{fill:#FFFFFF;stroke:#B0C2DC;stroke-miterlimit:10;}
	.st4{fill:#BCBEC0;}
	.st5{fill:none;stroke:#FFFFFF;stroke-width:0.5;stroke-miterlimit:10;}
	.st6{fill:none;stroke:#13213D;stroke-width:0.5;stroke-miterlimit:10;}
	.st7{fill:#010101;}
</style>
<g>
	<path class="st1" d="M4.5,7.9v0.5h5.4v15.6h2V8.4h5.4V7.9H4.5z"/>
	<path class="st1" d="M23.1,23.5V16h7.2v-0.5h-7.2V8.4h9V7.9H21.1v16h11.3v-0.5H23.1z"/>
	<path class="st1" d="M49,20.7c-1,1.8-3,2.9-5.4,2.9c-4,0-6.7-3-6.7-7.7c0-4.6,2.7-7.6,6.8-7.6c3,0,5.2,1.6,5.2,3.6h0.5
		c0-2.3-2.6-4.1-6.2-4.1c-4.9,0-8.4,3.6-8.4,8.2c0,4.7,3.7,8.2,8.5,8.2c2.9,0,5.4-1.5,6.4-3.5L49,20.7L49,20.7z"/>
	<polygon class="st1" points="71.2,16.8 71,17.2 68.1,23.8 68.1,23.8 68.1,23.9 67.2,23.9 60.2,7.9 62.3,7.9 68.4,21.8 70.9,16 
		70.9,16.1 	"/>
	<polygon class="st1" points="84.2,7.9 77.2,23.9 76.3,23.9 73.5,17.4 72.2,14.5 71.9,13.8 71.9,13.8 71.8,13.6 69.3,7.9 71.5,7.9 
		73,11.4 74.5,7.8 75.2,7.8 73.3,12.1 77.5,21.9 83.6,7.9 	"/>
	<path class="st1" d="M94.6,7.7c-4.8,0-8.3,3.5-8.3,8.2c0,4.7,3.6,8.2,8.3,8.2c4.8,0,8.4-3.5,8.4-8.2C102.9,11.2,99.4,7.7,94.6,7.7z
		 M94.6,23.7c-3.7,0-6.2-3.1-6.2-7.8c0-4.7,2.5-7.8,6.2-7.8c3.8,0,6.2,3.1,6.2,7.8C100.8,20.6,98.3,23.7,94.6,23.7z"/>
	<path class="st1" d="M119.3,22.2l-2.1-3.5c-0.4-0.8-1.4-1.4-2.4-1.7c2.8-0.3,4.8-2.1,4.8-4.5c0-2.6-2.5-4.5-5.8-4.5h-6.3v16h2V8.4
		h3.9c2.4,0,4.1,1.6,4.1,4.1c0,2.5-1.6,4.1-4.1,4.1h-1.9v0.5h1.9c0.6,0.3,1.1,0.8,1.4,1.3l2.4,4.3c0.3,0.5,0.7,1,1.2,1.3h2.3
		C120.2,23.6,119.6,22.9,119.3,22.2z"/>
	<path class="st1" d="M130.1,14.1l6.9-6.2h-0.8l-9.8,8.9V7.9h-2v16h2v-6.5l2.4-2.1l6.4,8.6h2.4L130.1,14.1z"/>
	<path class="st1" d="M146.1,15.1c-2.3-0.9-4.6-1.8-4.6-3.8c0-1.7,1.8-3.1,4.2-3.1c2.5,0,4.4,1.6,4.4,3.6h0.5c0-2.4-2.2-4.1-5.1-4.1
		c-3.2,0-5.5,1.8-5.5,4.3c0,2.8,2.8,3.9,5.1,4.8c2.4,1,4.6,1.8,4.6,3.8c0,1.8-1.9,3-4.5,3c-2.8,0-5.1-1.7-5.1-3.9h-0.5
		c0,2.5,2.6,4.4,5.9,4.4c3.4,0,5.8-1.7,5.8-4.4C151.2,17.1,148.7,16.1,146.1,15.1z"/>
	<path class="st1" d="M167.2,7.9v7.7h-9.4V7.9h-2v16h2v-7.9h9.4v7.9h2.1v-16H167.2z"/>
	<path class="st1" d="M182.1,7.7c-4.8,0-8.3,3.5-8.3,8.2c0,4.7,3.6,8.2,8.3,8.2c4.8,0,8.4-3.5,8.4-8.2
		C190.4,11.2,186.9,7.7,182.1,7.7z M182.1,23.7c-3.7,0-6.2-3.1-6.2-7.8c0-4.7,2.5-7.8,6.2-7.8c3.8,0,6.2,3.1,6.2,7.8
		C188.3,20.6,185.8,23.7,182.1,23.7z"/>
	<path class="st1" d="M201.7,7.9h-6.8v16h2V8.4h4.3c2.5,0,4.1,1.8,4.1,4.5c0,2.7-1.6,4.5-4.1,4.5h-2.3v0.5h2.8c3.3,0,5.8-2.1,5.8-5
		C207.5,10.1,205,7.9,201.7,7.9z"/>
</g>
</svg>
